<mxfile host="app.diagrams.net" modified="2021-01-29T15:00:17.604Z" agent="5.0 (X11)" etag="bO_hPYXkkVKa_73L44ya" version="14.2.7" type="github">
  <diagram id="Bgn7a11xxGUPv2xNRO93" name="Page-1">
    <mxGraphModel dx="474" dy="275" grid="1" gridSize="10" guides="1" tooltips="1" connect="1" arrows="1" fold="1" page="1" pageScale="1" pageWidth="827" pageHeight="1169" math="0" shadow="0">
      <root>
        <mxCell id="0" />
        <mxCell id="1" parent="0" />
        <mxCell id="qhCYqATupAZu9KcscnLT-1" value="Faye2014" style="rounded=0;whiteSpace=wrap;html=1;" vertex="1" parent="1">
          <mxGeometry x="220" y="210" width="90" height="30" as="geometry" />
        </mxCell>
        <mxCell id="qhCYqATupAZu9KcscnLT-2" value="Folias2017" style="rounded=0;whiteSpace=wrap;html=1;" vertex="1" parent="1">
          <mxGeometry x="120" y="330" width="80" height="30" as="geometry" />
        </mxCell>
        <mxCell id="qhCYqATupAZu9KcscnLT-3" value="" style="endArrow=classic;html=1;exitX=0.5;exitY=0;exitDx=0;exitDy=0;entryX=0.5;entryY=1;entryDx=0;entryDy=0;" edge="1" parent="1" source="qhCYqATupAZu9KcscnLT-2" target="qhCYqATupAZu9KcscnLT-1">
          <mxGeometry width="50" height="50" relative="1" as="geometry">
            <mxPoint x="240" y="350" as="sourcePoint" />
            <mxPoint x="320" y="270" as="targetPoint" />
          </mxGeometry>
        </mxCell>
      </root>
    </mxGraphModel>
  </diagram>
</mxfile>
